<svg xmlns="http://www.w3.org/2000/svg" xmlns:xlink="http://www.w3.org/1999/xlink" width="43.736" height="44.912" viewBox="0 0 43.736 44.912">
  <defs>
    <clipPath id="clip-path">
      <rect id="Rectangle_18" data-name="Rectangle 18" width="43.736" height="44.912" transform="translate(0 0)" fill="#f08517"/>
    </clipPath>
  </defs>
  <g id="Group_5" data-name="Group 5" transform="translate(0 0)">
    <g id="Group_4" data-name="Group 4" clip-path="url(#clip-path)">
      <path id="Path_3" data-name="Path 3" d="M11.291,44.912a2.59,2.59,0,0,1-.591-.068,9.73,9.73,0,0,1,0-18.939,2.6,2.6,0,0,1,2.211.5,2.683,2.683,0,0,1,1.023,2.112V42.232a2.681,2.681,0,0,1-1.022,2.111,2.608,2.608,0,0,1-1.621.569m0-17.075a.589.589,0,0,0-.134.016,7.73,7.73,0,0,0,0,15.044.6.6,0,0,0,.511-.122.692.692,0,0,0,.265-.543V28.518a.694.694,0,0,0-.265-.544.618.618,0,0,0-.378-.137" fill="#f08517"/>
      <path id="Path_4" data-name="Path 4" d="M32.445,44.912a2.608,2.608,0,0,1-1.621-.569A2.681,2.681,0,0,1,29.8,42.232V28.518a2.683,2.683,0,0,1,1.023-2.112,2.592,2.592,0,0,1,2.211-.5,9.73,9.73,0,0,1,0,18.939,2.59,2.59,0,0,1-.591.068m0-17.075a.618.618,0,0,0-.378.137.694.694,0,0,0-.265.544V42.232a.692.692,0,0,0,.265.543.6.6,0,0,0,.512.122,7.73,7.73,0,0,0,0-15.044.574.574,0,0,0-.133-.016" fill="#f08517"/>
      <path id="Path_5" data-name="Path 5" d="M39.726,36.49a1,1,0,0,1-.854-1.519A19.845,19.845,0,0,0,35.558,10.31a1,1,0,1,1,1.376-1.451,21.845,21.845,0,0,1,3.648,27.15,1,1,0,0,1-.856.481" fill="#f08517"/>
      <path id="Path_6" data-name="Path 6" d="M4.011,36.49a1,1,0,0,1-.856-.481A21.845,21.845,0,0,1,6.8,8.859,1,1,0,1,1,8.179,10.31,19.845,19.845,0,0,0,4.865,34.971a1,1,0,0,1-.854,1.519" fill="#f08517"/>
      <path id="Path_7" data-name="Path 7" d="M34.076,11.6a3.777,3.777,0,0,1-2.252-.731,17.034,17.034,0,0,0-19.918.005,3.835,3.835,0,0,1-5.184-.652,1.473,1.473,0,0,1-.187-.239,3.825,3.825,0,0,1,.891-5.317,24.669,24.669,0,0,1,28.886,0,3.827,3.827,0,0,1,.877,5.334,1.923,1.923,0,0,1-.237.287A3.748,3.748,0,0,1,34.076,11.6M21.868,5.66A18.9,18.9,0,0,1,33,9.256a1.828,1.828,0,0,0,2.475-.31c.008-.012.074-.088.082-.1a1.825,1.825,0,0,0-.415-2.553,22.667,22.667,0,0,0-26.547,0,1.825,1.825,0,0,0-.418,2.555c.022.021.062.075.081.1a1.827,1.827,0,0,0,2.474.313,18.909,18.909,0,0,1,11.135-3.6" fill="#f08517"/>
      <path id="Path_8" data-name="Path 8" d="M11.291,44.913a2.592,2.592,0,0,1-.591-.069,9.73,9.73,0,0,1,0-18.938h0a2.591,2.591,0,0,1,2.211.5,2.68,2.68,0,0,1,1.022,2.111V42.232a2.677,2.677,0,0,1-1.022,2.111,2.606,2.606,0,0,1-1.62.57m-.134-17.06a7.73,7.73,0,0,0,0,15.044.6.6,0,0,0,.512-.121.693.693,0,0,0,.264-.544V28.518a.693.693,0,0,0-.264-.544.613.613,0,0,0-.512-.121" fill="#f08517"/>
      <path id="Path_9" data-name="Path 9" d="M32.445,44.912a2.608,2.608,0,0,1-1.621-.569A2.681,2.681,0,0,1,29.8,42.232V28.518a2.683,2.683,0,0,1,1.023-2.112,2.592,2.592,0,0,1,2.211-.5,9.73,9.73,0,0,1,0,18.939,2.59,2.59,0,0,1-.591.068m0-17.075a.618.618,0,0,0-.378.137.694.694,0,0,0-.265.544V42.232a.692.692,0,0,0,.265.543.6.6,0,0,0,.512.122,7.73,7.73,0,0,0,0-15.044.574.574,0,0,0-.133-.016" fill="#f08517"/>
    </g>
  </g>
</svg>
