<svg xmlns="http://www.w3.org/2000/svg" xmlns:xlink="http://www.w3.org/1999/xlink" width="36.39" height="45.828" viewBox="0 0 36.39 45.828">
  <defs>
    <clipPath id="clip-path">
      <rect id="Rectangle_19" data-name="Rectangle 19" width="36.39" height="45.828" fill="#f08517"/>
    </clipPath>
  </defs>
  <g id="Group_7" data-name="Group 7" transform="translate(0 0)">
    <g id="Group_6" data-name="Group 6" transform="translate(0 0)" clip-path="url(#clip-path)">
      <path id="Path_10" data-name="Path 10" d="M29.215,18.088A9.029,9.029,0,0,1,20.2,9.011a8.951,8.951,0,0,1,2.644-6.365,9.049,9.049,0,0,1,12.8,12.8,8.951,8.951,0,0,1-6.371,2.645Zm.033-16.326A7.288,7.288,0,0,0,24.1,14.2a7.3,7.3,0,0,0,10.305,0A7.282,7.282,0,0,0,29.248,1.762" transform="translate(-2.397 0)" fill="#f08517"/>
      <path id="Path_11" data-name="Path 11" d="M4.6,36.454a.876.876,0,0,1-.624-.258L.866,33.083a.88.88,0,0,1-.074-1.162L18.064,9.573a.881.881,0,0,1,1.579.545,7.2,7.2,0,0,0,2.129,5.174,7.132,7.132,0,0,0,5.174,2.129h.006A.881.881,0,0,1,27.489,19L5.141,36.27a.87.87,0,0,1-.538.184M2.662,32.385,4.677,34.4,24.712,18.918a9.07,9.07,0,0,1-6.567-6.567Z" transform="translate(-0.072 -1.095)" fill="#f08517"/>
      <path id="Path_12" data-name="Path 12" d="M35.594,16.641a.879.879,0,0,1-.623-.258L22.416,3.828a.881.881,0,0,1,1.246-1.246L36.217,15.137a.881.881,0,0,1-.623,1.5" transform="translate(-2.628 -0.275)" fill="#f08517"/>
      <path id="Path_13" data-name="Path 13" d="M7.905,49.219a7.905,7.905,0,0,1-5.59-13.495.882.882,0,0,1,1.252,1.241l-.006.006a6.142,6.142,0,0,0,8.687,8.686L27.855,30.05a5,5,0,0,1,7.07,7.07l-4.631,4.631A.881.881,0,1,1,29.048,40.5l4.631-4.631A3.237,3.237,0,0,0,29.1,31.3L13.495,46.9a7.853,7.853,0,0,1-5.59,2.315" transform="translate(0 -3.391)" fill="#f08517"/>
    </g>
  </g>
</svg>
